# xmcd
#
# Track frame offsets:
#	150
#	14730
#	35899
#	61912
#	84201
#	103301
#	123698
#	153500
#	174743
#	194556
#	216634
#	245819
#
# Disc length: 3586 seconds
# Revision: 0
# Processed by: cddbd v1.5.2PL0 Copyright (c) Steve Scherf et al.
# Submitted via: dBpowerAMP V12.0
#
DISCID=bd0e000c
DTITLE=Various Artist - WOW Gospel Essentials 2: All-Time Favorite Songs
DYEAR=2009
DGENRE=Gospel
TTITLE0=Mary Mary - Shackles (Praise You)
TTITLE1=The Tri-City Singers - Never Seen The Righteous
TTITLE2=Kirk Franklin and The Family - Why We Sing
TTITLE3=Richard Smallwood with Vision - Total Praise
TTITLE4=J Moss - We Must Praise
TTITLE5=The Clark Sisters - Blessed and Highly Favored
TTITLE6=Byron Cage - The Presence Of The Lord Is Here
TTITLE7=Fred Hammond and Radical For Christ - Let The Praise Begin
TTITLE8=Yolanda Adams - The Battle Is The Lord's
TTITLE9=Donnie McClurkin - We Fall Down
TTITLE10=Marvin Sapp - I Believe
TTITLE11=John P. Kee and The New Life Community Choir - Show Up
EXTD=
EXTT0=
EXTT1=
EXTT2=
EXTT3=
EXTT4=
EXTT5=
EXTT6=
EXTT7=
EXTT8=
EXTT9=
EXTT10=
EXTT11=
PLAYORDER=
